<svg width="21" height="18" viewBox="0 0 21 18" fill="none" xmlns="http://www.w3.org/2000/svg">
<path d="M19.7 15.75H18.95V0.75C18.95 0.551088 18.871 0.360322 18.7303 0.21967C18.5897 0.0790178 18.3989 0 18.2 0H12.95C12.7511 0 12.5603 0.0790178 12.4197 0.21967C12.279 0.360322 12.2 0.551088 12.2 0.75V4.5H7.70001C7.5011 4.5 7.31033 4.57902 7.16968 4.71967C7.02903 4.86032 6.95001 5.05109 6.95001 5.25V9H3.20001C3.0011 9 2.81033 9.07902 2.66968 9.21967C2.52903 9.36032 2.45001 9.55109 2.45001 9.75V15.75H1.70001C1.5011 15.75 1.31033 15.829 1.16968 15.9697C1.02903 16.1103 0.950012 16.3011 0.950012 16.5C0.950012 16.6989 1.02903 16.8897 1.16968 17.0303C1.31033 17.171 1.5011 17.25 1.70001 17.25H19.7C19.8989 17.25 20.0897 17.171 20.2303 17.0303C20.371 16.8897 20.45 16.6989 20.45 16.5C20.45 16.3011 20.371 16.1103 20.2303 15.9697C20.0897 15.829 19.8989 15.75 19.7 15.75ZM13.7 1.5H17.45V15.75H13.7V1.5ZM8.45001 6H12.2V15.75H8.45001V6ZM3.95001 10.5H6.95001V15.75H3.95001V10.5Z" fill="#5D5D5D"/>
</svg>
