<svg width="214" height="308" viewBox="0 0 214 308" fill="none" xmlns="http://www.w3.org/2000/svg">
<path d="M125.577 36.1655H152.151V180.376H125.577V168.207C117.756 178.232 106.635 183.244 92.2144 183.244C85.5153 183.302 78.8816 181.923 72.7603 179.201C66.6391 176.478 61.1725 172.475 56.7289 167.462C46.9096 156.951 42 144.075 42 128.833C42 113.591 46.9096 100.72 56.7289 90.2201C61.1791 85.2083 66.6522 81.2091 72.7793 78.4922C78.9063 75.7753 85.5447 74.4038 92.2468 74.4704C106.668 74.4704 117.789 79.4826 125.61 89.5071L125.577 36.1655ZM76.6753 149.735C79.3551 152.412 82.5549 154.512 86.0773 155.906C89.5998 157.299 93.3703 157.956 97.1564 157.837C100.93 157.957 104.689 157.299 108.198 155.906C111.708 154.512 114.893 152.412 117.556 149.735C122.721 143.998 125.579 136.552 125.579 128.833C125.579 121.113 122.721 113.667 117.556 107.93C114.893 105.254 111.708 103.154 108.198 101.76C104.689 100.366 100.93 99.7088 97.1564 99.8287C93.3706 99.7121 89.601 100.371 86.0789 101.764C82.5569 103.157 79.3568 105.256 76.6753 107.93C71.442 113.634 68.5385 121.092 68.5385 128.833C68.5385 136.573 71.442 144.032 76.6753 149.735Z" fill="#0070DF"/>
<path d="M138.718 0L105.42 48.4158H172L138.718 0Z" fill="#0070DF"/>
<path d="M25.6479 257.246L19.3119 234.846H23.1839L27.8879 252.35L32.9759 234.846H36.3679L41.4239 252.35L46.1279 234.846H49.9999L43.6639 257.246H39.4079L34.6719 240.894L29.9039 257.246H25.6479ZM53.4704 250.718C53.7264 251.934 54.313 252.873 55.2304 253.534C56.1477 254.174 57.2677 254.494 58.5904 254.494C60.425 254.494 61.801 253.833 62.7184 252.51L65.5664 254.174C63.9877 256.499 61.6517 257.662 58.5584 257.662C55.9557 257.662 53.8544 256.873 52.2544 255.294C50.6544 253.694 49.8544 251.678 49.8544 249.246C49.8544 246.857 50.6437 244.862 52.2224 243.262C53.801 241.641 55.8277 240.83 58.3024 240.83C60.649 240.83 62.569 241.651 64.0624 243.294C65.577 244.937 66.3344 246.931 66.3344 249.278C66.3344 249.641 66.2917 250.121 66.2064 250.718H53.4704ZM53.4384 247.902H62.8464C62.6117 246.601 62.0677 245.619 61.2144 244.958C60.3824 244.297 59.401 243.966 58.2704 243.966C56.9904 243.966 55.9237 244.318 55.0704 245.022C54.217 245.726 53.673 246.686 53.4384 247.902ZM69.3754 257.246V233.886H72.8314V257.246H69.3754ZM84.3961 257.662C81.9855 257.662 79.9695 256.851 78.3481 255.23C76.7481 253.609 75.9481 251.614 75.9481 249.246C75.9481 246.857 76.7481 244.862 78.3481 243.262C79.9695 241.641 81.9855 240.83 84.3961 240.83C85.9535 240.83 87.3721 241.203 88.6521 241.95C89.9321 242.697 90.8921 243.699 91.5321 244.958L88.5561 246.686C88.1935 245.918 87.6388 245.321 86.8921 244.894C86.1668 244.446 85.3241 244.222 84.3641 244.222C82.9561 244.222 81.7721 244.702 80.8121 245.662C79.8735 246.622 79.4041 247.817 79.4041 249.246C79.4041 250.675 79.8735 251.87 80.8121 252.83C81.7721 253.79 82.9561 254.27 84.3641 254.27C85.3028 254.27 86.1455 254.046 86.8921 253.598C87.6601 253.15 88.2361 252.553 88.6201 251.806L91.5961 253.502C90.9135 254.782 89.9321 255.795 88.6521 256.542C87.3721 257.289 85.9535 257.662 84.3961 257.662ZM101.396 257.662C99.0495 257.662 97.0548 256.851 95.4121 255.23C93.7695 253.609 92.9481 251.614 92.9481 249.246C92.9481 246.878 93.7695 244.883 95.4121 243.262C97.0548 241.641 99.0495 240.83 101.396 240.83C103.764 240.83 105.759 241.641 107.38 243.262C109.023 244.883 109.844 246.878 109.844 249.246C109.844 251.614 109.023 253.609 107.38 255.23C105.759 256.851 103.764 257.662 101.396 257.662ZM97.8441 252.862C98.8041 253.822 99.9881 254.302 101.396 254.302C102.804 254.302 103.988 253.822 104.948 252.862C105.908 251.902 106.388 250.697 106.388 249.246C106.388 247.795 105.908 246.59 104.948 245.63C103.988 244.67 102.804 244.19 101.396 244.19C99.9881 244.19 98.8041 244.67 97.8441 245.63C96.8841 246.59 96.4041 247.795 96.4041 249.246C96.4041 250.697 96.8841 251.902 97.8441 252.862ZM130.441 240.83C132.254 240.83 133.716 241.417 134.825 242.59C135.934 243.763 136.489 245.342 136.489 247.326V257.246H133.033V247.55C133.033 246.441 132.756 245.587 132.201 244.99C131.646 244.371 130.889 244.062 129.929 244.062C128.862 244.062 128.009 244.414 127.369 245.118C126.75 245.822 126.441 246.878 126.441 248.286V257.246H122.985V247.55C122.985 246.441 122.718 245.587 122.185 244.99C121.673 244.371 120.937 244.062 119.977 244.062C118.932 244.062 118.078 244.425 117.417 245.15C116.756 245.854 116.425 246.899 116.425 248.286V257.246H112.969V241.246H116.425V243.166C117.449 241.609 118.974 240.83 121.001 240.83C123.049 240.83 124.564 241.673 125.545 243.358C126.612 241.673 128.244 240.83 130.441 240.83ZM142.908 250.718C143.164 251.934 143.751 252.873 144.668 253.534C145.585 254.174 146.705 254.494 148.028 254.494C149.863 254.494 151.239 253.833 152.156 252.51L155.004 254.174C153.425 256.499 151.089 257.662 147.996 257.662C145.393 257.662 143.292 256.873 141.692 255.294C140.092 253.694 139.292 251.678 139.292 249.246C139.292 246.857 140.081 244.862 141.66 243.262C143.239 241.641 145.265 240.83 147.74 240.83C150.087 240.83 152.007 241.651 153.5 243.294C155.015 244.937 155.772 246.931 155.772 249.278C155.772 249.641 155.729 250.121 155.644 250.718H142.908ZM142.876 247.902H152.284C152.049 246.601 151.505 245.619 150.652 244.958C149.82 244.297 148.839 243.966 147.708 243.966C146.428 243.966 145.361 244.318 144.508 245.022C143.655 245.726 143.111 246.686 142.876 247.902ZM175.741 244.574H171.773V252.254C171.773 252.915 171.922 253.395 172.221 253.694C172.52 253.971 172.957 254.131 173.533 254.174C174.13 254.195 174.866 254.185 175.741 254.142V257.246C173.096 257.566 171.197 257.342 170.045 256.574C168.893 255.785 168.317 254.345 168.317 252.254V244.574H165.373V241.246H168.317V237.79L171.773 236.766V241.246H175.741V244.574ZM185.771 257.662C183.424 257.662 181.43 256.851 179.787 255.23C178.144 253.609 177.323 251.614 177.323 249.246C177.323 246.878 178.144 244.883 179.787 243.262C181.43 241.641 183.424 240.83 185.771 240.83C188.139 240.83 190.134 241.641 191.755 243.262C193.398 244.883 194.219 246.878 194.219 249.246C194.219 251.614 193.398 253.609 191.755 255.23C190.134 256.851 188.139 257.662 185.771 257.662ZM182.219 252.862C183.179 253.822 184.363 254.302 185.771 254.302C187.179 254.302 188.363 253.822 189.323 252.862C190.283 251.902 190.763 250.697 190.763 249.246C190.763 247.795 190.283 246.59 189.323 245.63C188.363 244.67 187.179 244.19 185.771 244.19C184.363 244.19 183.179 244.67 182.219 245.63C181.259 246.59 180.779 247.795 180.779 249.246C180.779 250.697 181.259 251.902 182.219 252.862ZM15.9306 273.846C19.0026 273.846 21.552 274.923 23.5786 277.078C25.6266 279.233 26.6506 281.889 26.6506 285.046C26.6506 288.182 25.6266 290.838 23.5786 293.014C21.552 295.169 19.0026 296.246 15.9306 296.246H7.13063V273.846H15.9306ZM15.9306 292.726C18.0426 292.726 19.76 292.001 21.0826 290.55C22.4266 289.099 23.0986 287.265 23.0986 285.046C23.0986 282.806 22.4266 280.971 21.0826 279.542C19.76 278.091 18.0426 277.366 15.9306 277.366H10.8106V292.726H15.9306ZM38.1976 279.83C40.0323 279.83 41.515 280.417 42.6456 281.59C43.7763 282.763 44.3416 284.374 44.3416 286.422V296.246H40.8856V286.774C40.8856 285.579 40.5656 284.662 39.9256 284.022C39.2856 283.382 38.411 283.062 37.3016 283.062C36.0856 283.062 35.1043 283.446 34.3576 284.214C33.611 284.961 33.2376 286.113 33.2376 287.67V296.246H29.7816V273.846H33.2376V282.294C34.283 280.651 35.9363 279.83 38.1976 279.83ZM60.7349 280.246H64.1909V296.246H60.7349V293.942C59.4335 295.755 57.5669 296.662 55.1349 296.662C52.9375 296.662 51.0602 295.851 49.5029 294.23C47.9455 292.587 47.1669 290.593 47.1669 288.246C47.1669 285.878 47.9455 283.883 49.5029 282.262C51.0602 280.641 52.9375 279.83 55.1349 279.83C57.5669 279.83 59.4335 280.726 60.7349 282.518V280.246ZM52.0629 291.926C53.0229 292.886 54.2282 293.366 55.6789 293.366C57.1295 293.366 58.3349 292.886 59.2949 291.926C60.2549 290.945 60.7349 289.718 60.7349 288.246C60.7349 286.774 60.2549 285.558 59.2949 284.598C58.3349 283.617 57.1295 283.126 55.6789 283.126C54.2282 283.126 53.0229 283.617 52.0629 284.598C51.1029 285.558 50.6229 286.774 50.6229 288.246C50.6229 289.718 51.1029 290.945 52.0629 291.926ZM76.6351 279.83C78.4698 279.83 79.9525 280.417 81.0831 281.59C82.2138 282.763 82.7791 284.374 82.7791 286.422V296.246H79.3231V286.774C79.3231 285.579 79.0031 284.662 78.3631 284.022C77.7231 283.382 76.8485 283.062 75.7391 283.062C74.5231 283.062 73.5418 283.446 72.7951 284.214C72.0485 284.961 71.6751 286.113 71.6751 287.67V296.246H68.2191V280.246H71.6751V282.294C72.7205 280.651 74.3738 279.83 76.6351 279.83ZM94.1804 296.662C92.0257 296.662 90.191 296.171 88.6764 295.19C87.183 294.209 86.1377 292.865 85.5404 291.158L88.7084 289.302C89.6044 291.819 91.4604 293.078 94.2764 293.078C95.663 293.078 96.6977 292.811 97.3804 292.278C98.0844 291.723 98.4364 291.009 98.4364 290.134C98.4364 289.217 98.063 288.523 97.3164 288.054C96.5697 287.563 95.247 287.03 93.3484 286.454C92.2817 286.134 91.4177 285.835 90.7564 285.558C90.095 285.281 89.391 284.897 88.6444 284.406C87.919 283.894 87.375 283.265 87.0124 282.518C86.6497 281.771 86.4684 280.897 86.4684 279.894C86.4684 277.91 87.1724 276.342 88.5804 275.19C89.9884 274.017 91.6844 273.43 93.6684 273.43C95.4604 273.43 97.0284 273.867 98.3724 274.742C99.7164 275.617 100.751 276.822 101.476 278.358L98.3724 280.15C97.4337 278.059 95.8657 277.014 93.6684 277.014C92.6017 277.014 91.7484 277.27 91.1084 277.782C90.4684 278.273 90.1484 278.945 90.1484 279.798C90.1484 280.63 90.4684 281.291 91.1084 281.782C91.7697 282.251 92.9537 282.753 94.6604 283.286C95.5137 283.563 96.1324 283.777 96.5164 283.926C96.9217 284.054 97.4764 284.267 98.1804 284.566C98.9057 284.865 99.4497 285.163 99.8124 285.462C100.175 285.761 100.559 286.134 100.964 286.582C101.391 287.03 101.69 287.542 101.86 288.118C102.031 288.694 102.116 289.345 102.116 290.07C102.116 292.097 101.38 293.707 99.9084 294.902C98.4577 296.075 96.5484 296.662 94.1804 296.662ZM118.172 280.246H121.628V296.246H118.172V293.942C116.871 295.755 115.004 296.662 112.572 296.662C110.375 296.662 108.498 295.851 106.94 294.23C105.383 292.587 104.604 290.593 104.604 288.246C104.604 285.878 105.383 283.883 106.94 282.262C108.498 280.641 110.375 279.83 112.572 279.83C115.004 279.83 116.871 280.726 118.172 282.518V280.246ZM109.5 291.926C110.46 292.886 111.666 293.366 113.116 293.366C114.567 293.366 115.772 292.886 116.732 291.926C117.692 290.945 118.172 289.718 118.172 288.246C118.172 286.774 117.692 285.558 116.732 284.598C115.772 283.617 114.567 283.126 113.116 283.126C111.666 283.126 110.46 283.617 109.5 284.598C108.54 285.558 108.06 286.774 108.06 288.246C108.06 289.718 108.54 290.945 109.5 291.926ZM138.329 280.246H141.785V296.246H138.329V293.942C137.027 295.755 135.161 296.662 132.729 296.662C130.531 296.662 128.654 295.851 127.097 294.23C125.539 292.587 124.761 290.593 124.761 288.246C124.761 285.878 125.539 283.883 127.097 282.262C128.654 280.641 130.531 279.83 132.729 279.83C135.161 279.83 137.027 280.726 138.329 282.518V280.246ZM129.657 291.926C130.617 292.886 131.822 293.366 133.273 293.366C134.723 293.366 135.929 292.886 136.889 291.926C137.849 290.945 138.329 289.718 138.329 288.246C138.329 286.774 137.849 285.558 136.889 284.598C135.929 283.617 134.723 283.126 133.273 283.126C131.822 283.126 130.617 283.617 129.657 284.598C128.697 285.558 128.217 286.774 128.217 288.246C128.217 289.718 128.697 290.945 129.657 291.926ZM149.269 282.934C150.144 280.95 151.786 279.958 154.197 279.958V283.702C152.874 283.617 151.722 283.937 150.741 284.662C149.76 285.366 149.269 286.539 149.269 288.182V296.246H145.813V280.246H149.269V282.934ZM166.085 283.574H162.117V291.254C162.117 291.915 162.266 292.395 162.565 292.694C162.863 292.971 163.301 293.131 163.877 293.174C164.474 293.195 165.21 293.185 166.085 293.142V296.246C163.439 296.566 161.541 296.342 160.389 295.574C159.237 294.785 158.661 293.345 158.661 291.254V283.574H155.717V280.246H158.661V276.79L162.117 275.766V280.246H166.085V283.574ZM177.635 279.83C179.47 279.83 180.952 280.417 182.083 281.59C183.214 282.763 183.779 284.374 183.779 286.422V296.246H180.323V286.774C180.323 285.579 180.003 284.662 179.363 284.022C178.723 283.382 177.848 283.062 176.739 283.062C175.523 283.062 174.542 283.446 173.795 284.214C173.048 284.961 172.675 286.113 172.675 287.67V296.246H169.219V273.846H172.675V282.294C173.72 280.651 175.374 279.83 177.635 279.83ZM190.764 277.206C190.338 277.633 189.826 277.846 189.228 277.846C188.631 277.846 188.108 277.633 187.66 277.206C187.234 276.758 187.02 276.235 187.02 275.638C187.02 275.041 187.234 274.529 187.66 274.102C188.087 273.654 188.61 273.43 189.228 273.43C189.847 273.43 190.37 273.654 190.796 274.102C191.223 274.529 191.436 275.041 191.436 275.638C191.436 276.235 191.212 276.758 190.764 277.206ZM187.5 296.246V280.246H190.956V296.246H187.5ZM203.673 289.206L202.969 280.246V273.846H207.129V280.246L206.393 289.206H203.673ZM206.745 295.926C206.276 296.395 205.71 296.63 205.049 296.63C204.388 296.63 203.822 296.395 203.353 295.926C202.884 295.457 202.649 294.891 202.649 294.23C202.649 293.569 202.873 293.003 203.321 292.534C203.79 292.065 204.366 291.83 205.049 291.83C205.71 291.83 206.276 292.065 206.745 292.534C207.214 293.003 207.449 293.569 207.449 294.23C207.449 294.891 207.214 295.457 206.745 295.926Z" fill="white"/>
</svg>
